<?xml version="1.0" standalone="no"?>
<!DOCTYPE svg PUBLIC "-//W3C//DTD SVG 20010904//EN"
 "http://www.w3.org/TR/2001/REC-SVG-20010904/DTD/svg10.dtd">
<svg version="1.0" xmlns="http://www.w3.org/2000/svg"
 width="300.000000pt" height="299.000000pt" viewBox="0 0 300.000000 299.000000"
 preserveAspectRatio="xMidYMid meet">
<metadata>
Created by potrace 1.10, written by Peter Selinger 2001-2011
</metadata>
<g transform="translate(0.000000,299.000000) scale(0.100000,-0.100000)"
fill="#000000" stroke="none">
<path d="M1355 2973 c-124 -9 -281 -46 -408 -95 -344 -132 -651 -418 -806
-749 -58 -122 -156 -489 -131 -489 13 0 31 46 60 161 40 155 64 228 103 304
17 33 30 64 29 68 -1 4 2 13 8 20 6 7 38 55 72 107 112 173 310 350 540 484
137 80 390 145 626 161 88 6 290 -15 397 -41 124 -31 325 -108 325 -125 0 -5
8 -9 19 -9 10 0 24 -7 31 -15 7 -8 16 -12 21 -9 5 3 9 0 9 -5 0 -6 5 -11 10
-11 9 0 74 -44 165 -112 51 -38 190 -181 220 -226 15 -23 32 -42 36 -42 5 0 9
-4 9 -9 0 -5 19 -38 42 -73 23 -35 43 -68 44 -75 1 -7 11 -25 23 -41 11 -16
18 -32 14 -36 -3 -3 -1 -6 6 -6 7 0 10 -4 7 -9 -4 -5 -3 -11 1 -13 19 -8 90
-245 117 -388 12 -62 30 -110 42 -110 12 0 -10 150 -37 260 -97 383 -297 665
-632 889 -153 103 -368 188 -557 220 -64 11 -328 20 -405 14z"/>
<path d="M791 2607 c-90 -11 -208 -59 -267 -109 -142 -120 -206 -268 -206
-470 1 -59 6 -126 13 -150 7 -24 14 -49 15 -57 3 -18 60 -127 77 -148 52 -65
159 -157 171 -146 3 4 6 2 6 -4 0 -6 38 -26 85 -44 46 -18 87 -39 89 -45 3 -7
-2 -36 -10 -66 -8 -29 -17 -66 -20 -83 -3 -16 -15 -73 -28 -125 -13 -52 -31
-131 -40 -175 -10 -44 -22 -90 -27 -103 -5 -13 -9 -33 -9 -45 0 -12 -9 -41
-19 -64 -22 -47 -73 -78 -137 -82 -11 -1 -50 -70 -42 -75 47 -35 51 -36 253
-36 196 0 202 1 221 23 23 25 24 34 4 64 -9 14 -25 23 -41 23 -14 0 -34 9 -44
20 -16 18 -17 27 -7 87 16 90 20 111 31 158 6 22 17 72 26 110 9 39 18 81 22
95 3 14 7 32 9 40 9 50 28 129 37 155 16 47 28 57 56 50 14 -4 42 -9 61 -11
30 -3 89 -12 197 -29 35 -6 58 5 75 33 15 24 18 25 23 9 8 -20 -30 -103 -87
-188 -20 -31 -34 -59 -31 -63 4 -3 2 -6 -4 -6 -6 0 -19 -22 -29 -50 -10 -27
-22 -50 -26 -50 -4 0 -8 -7 -8 -15 0 -8 -4 -23 -10 -33 -5 -9 -18 -51 -28 -92
-34 -136 -11 -270 62 -366 20 -26 36 -43 36 -38 0 5 4 4 8 -2 12 -19 85 -59
127 -72 52 -14 107 -17 174 -7 75 10 115 29 167 77 83 76 125 177 126 298 0
73 -24 203 -41 224 -5 6 -19 40 -32 76 -12 36 -36 95 -54 132 -18 36 -31 69
-27 72 3 3 1 6 -5 6 -6 0 -8 10 -6 23 4 22 12 24 146 40 211 25 202 27 212
-52 2 -15 10 -55 19 -87 8 -32 17 -72 20 -89 3 -16 10 -48 15 -70 5 -22 16
-71 25 -110 9 -38 20 -88 26 -110 23 -95 0 -152 -64 -159 -59 -6 -87 -70 -44
-100 19 -14 63 -16 283 -16 l262 0 23 25 c21 22 22 27 10 50 -11 21 -41 38
-72 40 -3 0 -10 3 -14 8 -4 4 -14 7 -21 7 -27 0 -69 56 -64 84 1 5 -2 12 -7
15 -5 3 -12 24 -15 46 -6 40 -35 169 -63 280 -14 55 -21 93 -26 137 -1 9 -7
14 -12 11 -5 -4 -7 1 -3 10 3 9 0 41 -8 72 -8 31 -15 62 -15 70 0 8 30 30 68
49 37 19 77 44 90 55 12 12 22 19 22 16 0 -9 75 72 108 115 15 19 30 37 33 40
14 11 29 51 24 60 -3 6 -2 10 3 10 5 0 16 27 25 60 25 88 23 256 -4 345 -11
39 -21 78 -22 87 -1 9 -5 14 -9 12 -4 -3 -8 2 -8 11 0 16 -13 35 -72 108 -80
99 -186 158 -328 182 -129 23 -229 14 -573 -48 -166 -31 -177 -30 -471 37
-156 36 -279 46 -385 33z m429 -77 c263 -59 270 -59 500 -15 421 79 607 56
766 -96 101 -98 152 -214 161 -369 7 -119 -7 -195 -52 -287 -58 -118 -195
-238 -316 -276 -31 -9 -37 -15 -33 -32 3 -11 40 -174 83 -361 42 -188 85 -354
95 -368 25 -40 75 -66 124 -66 38 0 42 -2 42 -25 l0 -25 -279 0 -278 0 0 25
c0 21 4 25 28 25 37 0 79 17 107 42 30 29 29 76 -7 223 -16 66 -48 208 -71
315 -23 107 -43 196 -44 196 0 1 -77 -9 -171 -22 -212 -29 -215 -29 -215 -5 0
10 9 21 20 24 34 9 43 52 30 142 -23 166 -15 164 -86 25 l-62 -124 28 -55 c66
-133 191 -432 206 -496 47 -201 -35 -398 -187 -451 -77 -27 -199 -26 -260 3
-66 30 -121 83 -154 150 -27 53 -30 66 -29 163 0 93 4 114 32 188 17 46 60
134 95 195 76 133 117 212 117 227 0 12 -123 290 -127 286 -1 -1 -9 -45 -18
-98 -18 -107 -13 -132 31 -148 23 -9 32 -34 16 -43 -4 -3 -86 8 -182 24 -208
34 -200 34 -200 10 0 -11 -12 -68 -26 -128 -54 -230 -124 -554 -124 -577 0
-35 44 -66 91 -66 35 0 39 -3 39 -25 l0 -25 -220 0 -220 0 0 25 c0 21 5 25 30
25 38 0 98 24 126 51 12 11 27 39 33 62 19 72 161 681 161 692 0 6 -24 16 -52
22 -144 34 -307 158 -362 276 -102 218 -62 508 92 666 154 157 350 185 722
101z m460 -1003 c-1 -47 -21 -81 -50 -83 -35 -2 -24 70 18 118 21 25 32 13 32
-35z m-356 -12 c9 -14 19 -39 23 -56 l6 -30 -32 31 c-18 18 -31 42 -31 56 0
31 13 31 34 -1z"/>
<path d="M955 2469 c-49 -4 -104 -11 -120 -17 -110 -35 -232 -136 -278 -232
-45 -92 -60 -172 -55 -285 7 -154 46 -224 171 -306 55 -36 153 -76 163 -67 8
9 218 908 212 911 -1 2 -43 -1 -93 -4z m29 -35 c20 -8 20 -28 1 -101 -9 -32
-22 -87 -30 -123 -16 -74 -45 -200 -49 -215 -1 -5 -8 -37 -15 -70 -13 -63 -27
-120 -41 -170 -4 -16 -14 -54 -20 -83 -7 -30 -19 -56 -27 -59 -52 -20 -232
127 -253 207 -19 71 -19 198 1 282 17 73 52 148 69 148 5 0 12 9 15 20 11 35
125 118 190 139 85 28 132 35 159 25z"/>
<path d="M1113 2454 c3 -11 30 -72 61 -138 44 -94 56 -114 60 -95 15 70 36
183 36 194 0 7 -28 20 -62 29 -35 10 -72 20 -82 23 -15 4 -18 1 -13 -13z m106
-58 c7 -8 8 -22 3 -36 l-8 -23 -22 28 c-12 15 -22 32 -22 36 0 14 36 10 49 -5z"/>
<path d="M1808 2443 c-92 -18 -88 -2 -55 -201 l22 -133 69 133 c38 73 80 150
93 170 12 21 23 40 23 43 0 9 -73 3 -152 -12z m77 -33 c6 -10 -50 -122 -58
-114 -2 3 -9 -9 -15 -25 -6 -17 -14 -31 -17 -31 -3 0 -3 5 0 10 3 6 2 10 -3
10 -14 0 -26 120 -13 133 8 8 40 17 93 26 4 0 9 -3 13 -9z"/>
<path d="M2025 2438 c3 -13 41 -183 85 -378 111 -499 111 -500 119 -500 4 0
36 17 72 39 203 122 256 367 132 604 -69 130 -169 210 -305 242 -91 21 -110
20 -103 -7z m202 -70 c45 -22 85 -48 88 -57 3 -10 18 -31 33 -47 48 -49 122
-220 107 -244 -4 -6 -1 -10 5 -10 12 0 10 -61 -4 -146 -12 -80 -72 -168 -144
-215 -61 -39 -69 -34 -86 56 -2 11 -13 56 -25 100 -11 44 -22 91 -25 105 -7
34 -56 260 -62 285 -5 23 -22 99 -35 164 -5 24 -6 47 -3 53 9 15 63 0 151 -44z"/>
<path d="M1445 2398 c-7 -18 -29 -107 -49 -198 -20 -91 -40 -182 -45 -203 -9
-35 -3 -51 70 -206 43 -93 79 -174 79 -180 0 -30 21 1 87 129 l71 139 -43 243
c-24 134 -52 258 -61 276 -15 28 -22 32 -56 32 -35 0 -41 -4 -53 -32z m84 -31
c5 -13 12 -37 15 -53 3 -16 10 -49 15 -74 11 -54 33 -185 37 -220 2 -14 6 -36
10 -50 18 -70 15 -84 -33 -179 -26 -51 -52 -94 -58 -95 -5 0 -16 13 -24 29 -8
17 -17 32 -21 35 -4 3 -11 19 -14 37 -4 17 -14 37 -22 44 -8 6 -14 17 -14 23
0 6 -6 22 -13 36 -24 46 -26 72 -12 142 8 37 17 82 20 100 10 66 59 233 69
240 20 14 36 8 45 -15z"/>
<path d="M1844 2037 l-41 -82 39 -195 c26 -131 44 -200 56 -212 10 -10 41 -20
76 -24 56 -7 59 -6 52 12 -4 10 -36 144 -70 296 -35 153 -65 280 -67 283 -3 2
-23 -33 -45 -78z m49 -87 c3 -19 10 -51 16 -70 6 -19 13 -48 16 -65 2 -16 15
-77 28 -135 25 -106 23 -122 -13 -113 -15 4 -40 58 -46 103 -1 8 -9 51 -18 95
-33 171 -33 181 -18 210 16 32 28 24 35 -25z"/>
<path d="M1026 1832 c-32 -147 -61 -273 -64 -281 -4 -11 6 -13 51 -9 32 3 59
7 62 10 3 3 26 87 51 188 l46 182 -36 79 c-20 43 -36 83 -36 89 0 5 -3 10 -7
10 -5 0 -34 -121 -67 -268z m100 94 c3 -19 2 -40 -2 -47 -4 -7 -9 -24 -10 -37
-11 -97 -63 -256 -87 -260 -17 -3 -17 1 -1 88 4 19 8 42 9 50 2 17 43 195 51
223 9 29 33 19 40 -17z"/>
<path d="M1367 1097 c-108 -213 -126 -276 -107 -364 32 -140 135 -213 263
-184 57 13 92 40 121 98 24 47 21 168 -5 246 -15 44 -158 370 -173 394 -1 1
-45 -85 -99 -190z m119 71 c3 -11 18 -45 32 -76 14 -32 27 -63 28 -71 1 -8 8
-17 14 -21 7 -4 12 -11 12 -16 0 -10 8 -32 33 -89 26 -63 29 -178 6 -230 -24
-55 -57 -76 -123 -81 -78 -6 -126 20 -174 92 -37 56 -25 210 23 286 12 21 23
42 23 47 0 6 14 32 30 58 17 26 30 53 30 60 0 7 4 13 9 13 10 0 27 39 23 52
-4 17 28 -6 34 -24z"/>
<path d="M2965 1364 c-8 -20 -15 -44 -15 -53 0 -19 -51 -222 -75 -301 -33
-107 -147 -310 -222 -397 -16 -17 -39 -46 -53 -64 -86 -113 -290 -270 -445
-343 -22 -11 -56 -27 -75 -37 -53 -26 -198 -75 -260 -88 -30 -6 -66 -14 -80
-16 -145 -30 -385 -26 -537 9 -95 22 -279 87 -322 114 -19 11 -38 19 -42 17
-4 -3 -12 2 -19 10 -7 8 -16 15 -21 15 -9 0 -110 59 -119 70 -3 3 -31 23 -64
45 -32 22 -93 74 -135 115 -81 78 -201 221 -201 238 0 6 -4 12 -9 14 -25 9
-177 340 -165 359 2 4 0 10 -5 13 -5 3 -21 58 -36 121 -31 131 -62 180 -50 80
23 -194 121 -442 246 -625 216 -317 580 -553 964 -626 110 -21 428 -24 520 -5
288 58 518 166 731 341 79 65 219 226 281 323 56 88 125 225 151 303 49 144
99 404 78 404 -3 0 -13 -16 -21 -36z"/>
</g>
</svg>
